<?xml version="1.0" standalone="no"?><!DOCTYPE svg PUBLIC "-//W3C//DTD SVG 1.1//EN" "http://www.w3.org/Graphics/SVG/1.1/DTD/svg11.dtd"><svg t="1672758070044" class="icon" viewBox="0 0 1024 1024" version="1.1" xmlns="http://www.w3.org/2000/svg" p-id="4564" xmlns:xlink="http://www.w3.org/1999/xlink" width="200" height="200"><path d="M944.626667 731.686667a149.82 149.82 0 0 0-31.713334-66.313334L758.766667 480.4A148.926667 148.926667 0 0 0 644.046667 426.666667H379.953333a148.926667 148.926667 0 0 0-114.72 53.733333L111.086667 665.373333a149.82 149.82 0 0 0-31.713334 66.313334L58.393333 836.6A85.333333 85.333333 0 0 0 142.066667 938.666667h739.866666a85.333333 85.333333 0 0 0 83.673334-102.066667z m-29.7 148.666666a42.513333 42.513333 0 0 1-32.993334 15.646667H142.066667a42.666667 42.666667 0 0 1-41.84-51.033333l20.986666-104.913334a107.013333 107.013333 0 0 1 22.666667-47.333333L298 507.713333A106.38 106.38 0 0 1 379.953333 469.333333h264.093334A106.38 106.38 0 0 1 726 507.713333L880.14 692.666667a107.013333 107.013333 0 0 1 22.666667 47.333333l20.986666 104.913333a42.52 42.52 0 0 1-8.866666 35.473334zM630 547.213333C598.2 524.506667 556.3 512 512 512s-86.2 12.506667-118 35.213333c-16.146667 11.533333-28.92 25.126667-37.96 40.4C346.28 604.1 341.333333 621.72 341.333333 640s4.946667 35.9 14.713334 52.386667c9.04 15.273333 21.813333 28.866667 37.96 40.4C425.8 755.493333 467.7 768 512 768s86.2-12.506667 118-35.213333c16.146667-11.533333 28.92-25.126667 37.96-40.4 9.766667-16.486667 14.713333-34.106667 14.713333-52.386667s-4.946667-35.9-14.713333-52.386667c-9.046667-15.273333-21.82-28.866667-37.96-40.4z m-24.8 150.853334c-24.62 17.58-57.72 27.266667-93.2 27.266666s-68.58-9.686667-93.193333-27.266666c-22.446667-16-34.806667-36.666667-34.806667-58.066667s12.36-42 34.806667-58.066667C443.42 564.353333 476.52 554.666667 512 554.666667s68.58 9.686667 93.193333 27.266666C627.64 598 640 618.586667 640 640s-12.36 42.033333-34.806667 58.066667z m232.76-548.18C750.533333 108.26 634.773333 85.333333 512 85.333333s-238.533333 22.926667-325.953333 64.553334C93.586667 193.92 42.666667 254.333333 42.666667 320v53.333333a53.393333 53.393333 0 0 0 53.333333 53.333334h192a53.393333 53.393333 0 0 0 53.333333-53.333334v-53.333333c0-13.253333 16.666667-28.9 43.566667-40.846667C418.493333 264.22 463.633333 256 512 256s93.506667 8.22 127.1 23.153333C666 291.1 682.666667 306.746667 682.666667 320v53.333333a53.393333 53.393333 0 0 0 53.333333 53.333334h192a53.393333 53.393333 0 0 0 53.333333-53.333334v-53.333333c0-65.666667-50.92-126.08-143.38-170.113333zM938.666667 373.333333a10.666667 10.666667 0 0 1-10.666667 10.666667h-192a10.666667 10.666667 0 0 1-10.666667-10.666667v-53.333333c0-31.733333-24.473333-60.086667-68.906666-79.833333C617.5 222.86 566.206667 213.333333 512 213.333333s-105.5 9.526667-144.426667 26.833334C323.14 259.913333 298.666667 288.266667 298.666667 320v53.333333a10.666667 10.666667 0 0 1-10.666667 10.666667H96a10.666667 10.666667 0 0 1-10.666667-10.666667v-53.333333c0-23.42 10.033333-46.593333 29.82-68.873333 20.666667-23.253333 50.666667-44.36 89.233334-62.713334C286.2 149.453333 395.446667 128 512 128s225.8 21.453333 307.613333 60.413333c38.553333 18.353333 68.573333 39.46 89.233334 62.713334C928.666667 273.406667 938.666667 296.58 938.666667 320z" fill="#00CED1" p-id="4565"></path></svg>